<?xml version="1.0" standalone="no"?>
<!DOCTYPE svg PUBLIC "-//W3C//DTD SVG 20010904//EN"
 "http://www.w3.org/TR/2001/REC-SVG-20010904/DTD/svg10.dtd">
<svg version="1.0" xmlns="http://www.w3.org/2000/svg"
 width="864.000000pt" height="864.000000pt" viewBox="0 0 864.000000 864.000000"
 preserveAspectRatio="xMidYMid meet">
<metadata>
Created by potrace 1.14, written by Peter Selinger 2001-2017
</metadata>
<g transform="translate(0.000000,864.000000) scale(0.100000,-0.100000)"
fill="#000000" stroke="none">
<path d="M3930 7650 c-351 -44 -625 -118 -955 -259 -144 -61 -484 -246 -485
-263 0 -4 21 -22 48 -40 26 -17 79 -60 119 -94 94 -82 143 -112 228 -141 190
-65 392 -26 547 104 31 26 88 74 125 106 179 153 387 240 641 268 215 23 462
-28 661 -137 86 -47 139 -87 264 -196 160 -140 274 -184 452 -175 172 9 263
53 439 216 55 50 103 91 108 91 26 0 -4 24 -104 83 -425 247 -845 384 -1353
442 -182 21 -547 18 -735 -5z"/>
<path d="M4141 6724 c-82 -22 -164 -70 -249 -147 -119 -107 -209 -171 -307
-220 -224 -111 -468 -150 -704 -112 -239 39 -427 135 -656 336 -62 54 -167
115 -231 133 -46 14 -330 -326 -511 -609 -60 -95 -153 -267 -153 -283 0 -9 11
-7 38 4 158 68 292 95 479 95 305 0 560 -102 798 -320 151 -138 280 -188 460
-178 158 9 243 52 424 212 206 183 444 280 716 292 158 7 274 -7 404 -49 177
-56 306 -133 461 -273 109 -98 215 -157 325 -180 89 -19 126 -19 217 0 117 24
224 83 329 181 158 147 267 215 445 277 251 87 492 87 753 -2 64 -22 117 -39
118 -38 4 5 -122 219 -192 323 -144 215 -437 564 -475 564 -45 0 -178 -82
-270 -167 -52 -49 -118 -105 -147 -126 -118 -86 -326 -172 -480 -198 -87 -15
-298 -15 -386 0 -154 26 -346 105 -471 195 -34 24 -101 79 -148 123 -156 142
-255 184 -433 182 -55 0 -124 -7 -154 -15z"/>
<path d="M6695 5345 c-131 -28 -201 -69 -343 -199 -179 -164 -343 -251 -567
-303 -111 -25 -356 -25 -475 1 -206 44 -400 149 -588 320 -151 136 -268 182
-441 174 -107 -5 -197 -31 -271 -78 -25 -16 -94 -72 -155 -124 -60 -52 -145
-116 -188 -142 -284 -172 -632 -211 -961 -107 -152 48 -275 121 -431 257 -55
48 -122 100 -150 115 -178 102 -424 96 -595 -16 -30 -20 -162 -142 -292 -272
l-238 -236 -11 -110 c-12 -125 -7 -684 7 -728 12 -35 452 -477 524 -525 87
-58 170 -84 285 -89 180 -9 301 40 461 187 240 220 478 325 769 337 157 7 267
-7 401 -48 173 -54 314 -137 459 -269 100 -92 171 -137 257 -166 207 -71 428
-16 605 149 160 149 313 236 518 294 72 20 121 26 245 30 170 6 248 -3 383
-42 169 -49 316 -132 458 -260 158 -143 264 -189 434 -190 114 0 169 13 270
63 61 30 104 68 320 281 175 173 252 255 256 275 30 130 35 563 9 766 l-10 75
-247 246 c-223 221 -255 249 -323 282 -126 62 -251 79 -375 52z"/>
<path d="M2952 3210 c-99 -26 -160 -61 -260 -150 -152 -134 -224 -188 -321
-238 -307 -160 -652 -175 -978 -43 -29 11 -53 18 -53 14 0 -26 203 -349 303
-482 76 -102 247 -300 315 -365 l40 -38 48 16 c69 23 138 71 235 162 212 197
429 297 707 326 335 34 649 -75 915 -318 162 -148 272 -197 437 -198 167 0
268 43 430 186 209 184 391 274 634 313 233 38 486 -3 699 -112 96 -50 181
-110 303 -216 69 -60 178 -124 240 -142 41 -11 291 278 459 530 93 140 217
360 208 369 -3 2 -24 -4 -48 -14 -203 -87 -438 -118 -642 -85 -246 40 -443
140 -660 337 -73 66 -120 94 -210 125 -147 51 -336 33 -471 -44 -23 -13 -84
-60 -135 -104 -164 -144 -290 -221 -451 -275 -159 -55 -393 -73 -560 -45 -113
19 -275 77 -371 132 -116 66 -153 95 -250 193 -92 93 -166 137 -281 166 -96
25 -187 25 -282 0z"/>
<path d="M2998 1820 c-72 -12 -139 -37 -200 -74 -63 -38 -285 -226 -284 -241
1 -13 148 -100 296 -175 485 -247 966 -362 1510 -362 532 0 1031 117 1504 354
82 41 305 168 326 185 3 3 -8 14 -25 26 -16 12 -74 61 -129 109 -143 127 -264
178 -421 178 -159 0 -275 -49 -424 -180 -166 -144 -297 -223 -459 -274 -341
-107 -686 -59 -992 139 -36 23 -113 84 -170 135 -178 158 -338 212 -532 180z"/>
</g>
</svg>
